<svg id="Layer_1" data-name="Layer 1" xmlns="http://www.w3.org/2000/svg" viewBox="0 0 319.02 696.61"><defs><style>.cls-1{fill:#08331c;}</style></defs><path class="cls-1" d="M20.6,569.1c.94,1.36.51,3.57-.84,4.08-5.85,2.2-12-.24-17.85-4.39,9.64,22.07,20.37,47.37,29.26,68.53a30.82,30.82,0,0,1,12.92,8,3,3,0,0,1,0,3.78l-.36.41c-1.31,1.53-.5,4.3,1.26,4.39,17.49.88,35.14-4.19,50.69-14.56,1.5-1,3.18.85,2.72,2.95-.41,1.85.88,3.59,2.34,3.15a36,36,0,0,0,17.71-12.72c1.24-1.61,2.51-3.42,4.23-3.86a2.63,2.63,0,0,1,2.31.65,1.71,1.71,0,0,0,2.74-.85l5.56-12.59c1.17-2.63,2.9-5.65,5.22-5.22s3.36,4.16,3.82,7.23c2,13.09,3.75,26.52,2.12,39.68s-7.3,26.19-16.65,31.77c-4.53,2.7-9.57,3.5-14.52,4.26-10.45,1.61-18.91,3.22-27,4.62H233.91c-8.14-1.4-16.69-3-27.14-4.62-5-.76-10-1.56-14.52-4.26-9.35-5.58-15-18.62-16.65-31.77s.15-26.59,2.11-39.68c.47-3.07,1.44-6.79,3.83-7.23s4.05,2.59,5.21,5.22l5.56,12.59a1.72,1.72,0,0,0,2.75.85,2.63,2.63,0,0,1,2.31-.65c1.72.44,3,2.25,4.23,3.86a36,36,0,0,0,17.71,12.72c1.45.44,2.74-1.3,2.34-3.15-.47-2.1,1.22-3.95,2.72-2.95,15.55,10.37,33.2,15.44,50.68,14.56,1.76-.09,2.58-2.86,1.27-4.39l-.36-.41a3,3,0,0,1,0-3.78,30.35,30.35,0,0,1,10.15-6.95h0l30-68.2c-5.2,3.28-10.64,5-15.8,3-1.35-.51-1.78-2.72-.84-4.08a302.15,302.15,0,0,0,19.72-32.89c1.07-2.05-.52-4.66-2.3-3.77l-5.44,2.72c-1.76.88-3.38-1.68-2.34-3.7a101.73,101.73,0,0,0,9.31-26.75c.48-2.39-1.79-4.16-3.18-2.48-3.56,4.27-8.27,6.95-13.13,7.12l3-6.18c-6.61,1.08-13.49-1.1-19-5.91a2.93,2.93,0,0,1,.24-4.33l5-3.23a2.91,2.91,0,0,0,.26-4.27A56.69,56.69,0,0,1,277.43,464l-.1-.51c-.1-.58-.51-2.07-.77-3.13a3.26,3.26,0,0,1,.13-2,31.64,31.64,0,0,1,13.84-16,15.21,15.21,0,0,1-5.24,1.06c-1.68,0-2.65-2.45-1.58-4.13l9.86-15.59c1.34-2.12-.51-5-2.4-3.81a69.44,69.44,0,0,1-16.62,7.91c-1.75.55-3.11-2-2.07-3.92l.16-.28a3,3,0,0,0-.85-3.77c-2.19-1.42-3.65-5.56-2.88-8.9,1.07-4.64,4.46-7.59,7.5-10.39a20.71,20.71,0,0,0,5.7-7.66c.62-1.65-.37-3.58-1.79-3.57l-3.53,0c-1.84,0-2.67-3-1.22-4.48l1.15-1.19a2.91,2.91,0,0,0-.3-4.18,11.22,11.22,0,0,1-4.47-6.12c-.54-1.7.57-3.55,2-3.37a26.42,26.42,0,0,0,16.74-3.65c1.84-1.09,1.41-4.64-.61-4.82a47.86,47.86,0,0,1-25.18-10.23c-1.36-1.06-1.24-3.68.23-4.48,12.09-6.55,22-19.62,26.93-35.31.74-2.35-1.4-4.46-3-2.94A30.84,30.84,0,0,1,276.71,316c-1.55.47-2.8-1.63-2.15-3.52a53.91,53.91,0,0,0,2-7.54c.36-1.9-1-3.54-2.46-3a71.28,71.28,0,0,1-24.61,4.5c-2.06,0-2.75-3.5-.92-4.74a66.94,66.94,0,0,0,11.78-10.25c1.35-1.47.58-4.31-1.17-4.41a56.57,56.57,0,0,1-11-1.78c-1.76-.46-2.14-3.51-.59-4.67l14.13-10.54c1.72-1.29,1-4.66-1-4.67a48.73,48.73,0,0,1-13.87-2.09c-1.81-.55-2-3.74-.27-4.75a31.55,31.55,0,0,0,11.71-13.21c.8-1.62-.07-3.77-1.55-3.88L249.3,241c-1.44-.1-2.29-2.13-1.56-3.76a21,21,0,0,0,1.45-4.78,3,3,0,0,0-.26-1.82,48.56,48.56,0,0,1-4.15-24.21c.15-1.69-1.05-3-2.33-2.65-7.84,2.18-16.57-1.52-21.84-9.34a3,3,0,0,1,.23-3.67c3.77-3.66,6.25-8.83,7.76-14.65.52-2-1-3.77-2.55-3.06a25.07,25.07,0,0,1-11.72,2.38,2.17,2.17,0,0,1-1.77-2c-.75-4-3.9-7.16-7.1-6.77-1.46.18-3,1-4.36.37-2.43-1.07-2.64-5.76-1.09-8.42s4.06-3.94,6.27-5.64c5.72-4.4,9.56-12.47,10.34-21,.2-2.21-1.84-3.54-3.17-2.13a14.55,14.55,0,0,1-1.95,1.75c-1.46,1.1-3.28-.7-2.82-2.81a20.18,20.18,0,0,0,.43-5.38c-.08-1.53-1.27-2.6-2.41-2.18a14.39,14.39,0,0,1-10,0c-1.21-.44-1.79-2.21-1.19-3.64a257.39,257.39,0,0,0,9.28-25.91c.49-1.66-.48-3.45-1.85-3.43l-5.69,0c-1.51,0-2.47-2.11-1.68-3.78,2.22-4.68,2.47-11.06,1.71-16.66-.89-6.65-2.85-13.11-3.18-19.81-.4,4-3.86,7.21-7.12,6.76-3.83-.54-6.85-4.63-8.56-9.1a34.2,34.2,0,0,1-2.09-9.3,2.27,2.27,0,0,0-1.82-2.25c-4.24-.47-7.12-7.67-7.69-13.71-.65-6.82-.93-15.09-5.6-18.37a2.47,2.47,0,0,0-2.32,0c-4.67,3.28-4.95,11.55-5.6,18.37-.58,6-3.45,13.24-7.69,13.71a2.26,2.26,0,0,0-1.82,2.25,34.2,34.2,0,0,1-2.09,9.3c-1.71,4.47-4.73,8.56-8.56,9.1-3.26.45-6.72-2.8-7.12-6.76-.33,6.7-2.29,13.16-3.19,19.81-.75,5.6-.5,12,1.72,16.66.79,1.67-.17,3.8-1.68,3.78l-5.69,0c-1.37,0-2.34,1.77-1.85,3.43a257.39,257.39,0,0,0,9.28,25.91c.6,1.43,0,3.2-1.19,3.64a14.42,14.42,0,0,1-10,0c-1.13-.42-2.32.65-2.41,2.18a20.61,20.61,0,0,0,.44,5.38c.46,2.11-1.36,3.91-2.82,2.81a14.55,14.55,0,0,1-2-1.75c-1.33-1.41-3.38-.08-3.17,2.13.78,8.52,4.62,16.59,10.34,21,2.2,1.7,4.73,3,6.27,5.64S121.41,166,119,167c-1.39.62-2.9-.19-4.36-.37-3.2-.39-6.35,2.79-7.1,6.77a2.17,2.17,0,0,1-1.77,2A25.07,25.07,0,0,1,94,173c-1.52-.71-3.07,1.08-2.56,3.06,1.51,5.82,4,11,7.77,14.65a3,3,0,0,1,.23,3.67c-5.27,7.82-14,11.52-21.84,9.34-1.28-.36-2.48,1-2.34,2.65a48.45,48.45,0,0,1-4.14,24.21,3,3,0,0,0-.26,1.82,21,21,0,0,0,1.45,4.78c.72,1.63-.12,3.66-1.56,3.76l-7.46.51c-1.48.11-2.35,2.26-1.56,3.88a31.63,31.63,0,0,0,11.72,13.21c1.68,1,1.54,4.2-.27,4.75a48.75,48.75,0,0,1-13.88,2.09c-2,0-2.7,3.38-1,4.67l14.13,10.54c1.55,1.16,1.17,4.21-.59,4.67a56.69,56.69,0,0,1-11,1.78c-1.76.1-2.52,2.94-1.18,4.41a67.36,67.36,0,0,0,11.79,10.25c1.83,1.24,1.14,4.75-.92,4.74A71.24,71.24,0,0,1,46,302c-1.45-.54-2.83,1.1-2.46,3a53.91,53.91,0,0,0,2,7.54c.65,1.89-.6,4-2.15,3.52A30.84,30.84,0,0,1,31,308.57c-1.57-1.52-3.71.59-3,2.94C33,327.2,42.88,340.27,55,346.82c1.47.8,1.59,3.42.23,4.48A47.89,47.89,0,0,1,30,361.53c-2,.18-2.45,3.73-.61,4.82A26.42,26.42,0,0,0,46.15,370c1.41-.18,2.51,1.67,2,3.37a11.22,11.22,0,0,1-4.47,6.12,2.91,2.91,0,0,0-.3,4.18l1.15,1.19c1.44,1.49.62,4.5-1.23,4.48l-3.52,0c-1.42,0-2.41,1.92-1.79,3.57a20.71,20.71,0,0,0,5.7,7.66c3,2.8,6.43,5.75,7.5,10.39.77,3.34-.69,7.48-2.88,8.9a3,3,0,0,0-.85,3.77l.16.28c1,1.91-.32,4.47-2.08,3.92a69.55,69.55,0,0,1-16.61-7.91c-1.9-1.23-3.74,1.69-2.4,3.81l9.86,15.59c1.06,1.68.1,4.15-1.58,4.13a15.16,15.16,0,0,1-5.24-1.06,31.69,31.69,0,0,1,13.84,16,3.26,3.26,0,0,1,.13,2c-.27,1.06-.67,2.55-.77,3.13l-.1.51a56.69,56.69,0,0,1-14.21,21.48,2.91,2.91,0,0,0,.26,4.27l5,3.23a2.93,2.93,0,0,1,.24,4.33c-5.52,4.81-12.41,7-19,5.91L18,509.35c-4.86-.17-9.58-2.85-13.13-7.12-1.39-1.68-3.66.09-3.18,2.48A102.08,102.08,0,0,0,11,531.46c1.05,2-.57,4.58-2.33,3.7l-5.44-2.72c-1.78-.89-3.37,1.72-2.31,3.77A303.81,303.81,0,0,0,20.6,569.1Z" transform="translate(-0.53 -1.78)"/></svg>